<svg width="36" height="37" viewBox="0 0 36 37" fill="none" xmlns="http://www.w3.org/2000/svg">
<path d="M15.4286 0C12.6 0 10.2857 2.08125 10.2857 4.625H5.14286C2.31429 4.625 0 6.70625 0 9.25H36C36 6.70625 33.6857 4.625 30.8571 4.625H25.7143C25.7143 2.08125 23.4 0 20.5714 0H15.4286ZM5.14286 13.875V36.1213C5.14286 36.63 5.55429 37 6.12 37H29.9314C30.4971 37 30.9086 36.63 30.9086 36.1213V13.875H25.7657V30.0625C25.7657 31.3575 24.6343 32.375 23.1943 32.375C21.7543 32.375 20.6229 31.3575 20.6229 30.0625V13.875H15.48V30.0625C15.48 31.3575 14.3486 32.375 12.9086 32.375C11.4686 32.375 10.3371 31.3575 10.3371 30.0625V13.875H5.19429H5.14286Z" fill="black"/>
</svg>
