<svg width="200" height="43" viewBox="0 0 200 43" fill="none" xmlns="http://www.w3.org/2000/svg">
<rect x="0.5" y="0.5" width="199" height="42" stroke="black"/>
<g clip-path="url(#clip0_319_212)">
<path fill-rule="evenodd" clip-rule="evenodd" d="M158.297 27.5605C157.953 27.8417 157.487 27.9997 157 27.9997C156.514 27.9997 156.048 27.8417 155.704 27.5605L145.333 19.075C145.158 18.9367 145.018 18.7711 144.922 18.5881C144.826 18.4051 144.776 18.2083 144.774 18.0091C144.771 17.81 144.818 17.6124 144.91 17.4281C145.002 17.2438 145.138 17.0763 145.31 16.9354C145.483 16.7946 145.687 16.6832 145.913 16.6078C146.138 16.5324 146.379 16.4944 146.623 16.4962C146.866 16.4979 147.107 16.5393 147.33 16.6179C147.554 16.6965 147.756 16.8108 147.925 16.954L157 24.379L166.075 16.954C166.421 16.6808 166.884 16.5296 167.365 16.533C167.846 16.5364 168.306 16.6942 168.645 16.9723C168.985 17.2504 169.178 17.6266 169.182 18.0199C169.187 18.4132 169.002 18.7921 168.668 19.075L158.297 27.5605Z" fill="black"/>
</g>
<defs>
<clipPath id="clip0_319_212">
<rect width="44" height="36" fill="white" transform="translate(135 4)"/>
</clipPath>
</defs>
</svg>
