<svg width="50" height="51" viewBox="0 0 50 51" fill="none" xmlns="http://www.w3.org/2000/svg">
<g clip-path="url(#clip0_72_54)">
<path d="M25.0002 40.4375C15.1557 40.4375 6.7107 34.2757 3.15884 25.5C6.7107 16.7243 15.1557 10.5625 25.0002 10.5625C34.8446 10.5625 43.2896 16.7243 46.8415 25.5C43.2896 34.2757 34.8446 40.4375 25.0002 40.4375ZM13.5835 25.5C13.5835 31.8985 18.6793 37.125 25.0002 37.125C31.321 37.125 36.4168 31.8985 36.4168 25.5C36.4168 19.1015 31.321 13.875 25.0002 13.875C18.6793 13.875 13.5835 19.1015 13.5835 25.5ZM19.7502 25.5C19.7502 22.506 22.1127 20.125 25.0002 20.125C27.8876 20.125 30.2502 22.506 30.2502 25.5C30.2502 28.494 27.8876 30.875 25.0002 30.875C22.1127 30.875 19.7502 28.494 19.7502 25.5Z" fill="white" stroke="black" stroke-width="2"/>
</g>
<defs>
<clipPath id="clip0_72_54">
<rect width="50" height="51" fill="white"/>
</clipPath>
</defs>
</svg>
