<svg width="46" height="32" viewBox="0 0 46 32" fill="none" xmlns="http://www.w3.org/2000/svg">
<path d="M22.9167 30.875C13.0722 30.875 4.6272 24.7132 1.07534 15.9375C4.6272 7.16179 13.0722 1 22.9167 1C32.7611 1 41.2061 7.16179 44.758 15.9375C41.2061 24.7132 32.7611 30.875 22.9167 30.875ZM11.5 15.9375C11.5 22.336 16.5958 27.5625 22.9167 27.5625C29.2375 27.5625 34.3333 22.336 34.3333 15.9375C34.3333 9.53898 29.2375 4.3125 22.9167 4.3125C16.5958 4.3125 11.5 9.53898 11.5 15.9375ZM17.6667 15.9375C17.6667 12.9435 20.0292 10.5625 22.9167 10.5625C25.8041 10.5625 28.1667 12.9435 28.1667 15.9375C28.1667 18.9315 25.8041 21.3125 22.9167 21.3125C20.0292 21.3125 17.6667 18.9315 17.6667 15.9375Z" fill="white" stroke="black" stroke-width="2"/>
</svg>
